<svg width="25" height="32" viewBox="0 0 25 32" fill="none" xmlns="http://www.w3.org/2000/svg">
<g clip-path="url(#clip0)">
<path d="M16.0028 14.1504H9.81506V21.2974H16.0028V14.1504Z" fill="#FED8B5"/>
<path opacity="0.2" d="M16.0028 14.1504V14.9764C15.8962 15.0842 15.7539 15.156 15.6117 15.2637C15.5761 15.2997 15.505 15.3356 15.4694 15.3715C14.7582 15.8743 13.9758 16.3412 13.9758 16.3412C13.4068 16.6644 12.4822 16.6644 11.9132 16.3412C11.9132 16.3412 10.9886 15.7666 10.2063 15.2278C10.064 15.1201 9.92176 15.0123 9.77951 14.9405V14.1863H16.0028V14.1504Z" fill="#010101"/>
<path d="M17.3898 7.61383C17.3898 9.76871 17.3542 12.2468 17.2475 12.6778C17.1764 13.0369 16.7497 13.7552 16.4652 14.0066C16.3585 14.1144 16.1807 14.258 15.9673 14.4017C15.825 14.5094 15.6828 14.6172 15.5405 14.7249C15.4694 14.7609 15.4339 14.7968 15.3627 14.8327C14.6515 15.2996 13.9047 15.7665 13.9047 15.7665C13.3713 16.1615 12.4467 16.1615 11.8777 15.8024C11.8777 15.8024 10.9531 15.2277 10.1707 14.689C10.0285 14.5813 9.92177 14.5094 9.81508 14.4376C9.60171 14.294 9.4239 14.1503 9.31722 14.0426C9.03272 13.7552 8.64154 13.0729 8.53486 12.7137C8.42817 12.2468 8.39261 9.80462 8.39261 7.64974C8.39261 6.24907 8.42817 4.95614 8.42817 4.41742C8.46373 3.59138 8.99716 2.51394 9.60171 2.37028C9.67284 2.37028 9.77952 2.33436 9.85065 2.29845C10.313 2.19071 10.6686 2.11888 10.6686 2.11888C10.7041 2.11888 10.7397 2.08296 10.8108 2.08296C12.0199 1.83156 13.8336 1.83156 15.0071 2.08296H15.0427C15.4339 2.15479 15.825 2.26253 16.1451 2.33436C16.5718 2.44211 16.963 2.98083 17.1764 3.59138C17.2831 3.84278 17.3186 4.1301 17.3186 4.3815C17.3186 4.56108 17.3542 4.84839 17.3542 5.24346C17.3898 5.88992 17.3898 6.71596 17.3898 7.61383Z" fill="#FED8B5"/>
<path d="M18.101 19.1425V27.4747H7.71695V19.1425H12.909H18.101Z" fill="white"/>
<path d="M14.1892 27.4387H11.5932L11.6643 26.8641V26.7922L11.8065 25.643L11.8421 25.4275L12.3044 21.2973V21.2255H13.478L13.5135 21.2973L13.9758 25.5711L14.0114 25.7507L14.1181 26.8641L14.1536 26.9L14.1892 27.4387Z" fill="#F04D23"/>
<path d="M13.5135 21.2255H12.3044L11.5932 19.1066L12.909 19.1425L14.2247 19.1066L13.5135 21.2255Z" fill="#D64327"/>
<path d="M10.1707 1.83161C8.35704 3.91466 14.0114 7.25473 16.7496 5.85405C18.101 5.13576 17.8876 2.90905 16.6785 2.08301C15.3272 1.18514 11.1309 0.71825 10.1707 1.83161Z" fill="#3C3D43"/>
<path d="M10.1707 1.83162C8.00141 2.2626 7.85916 4.81254 8.35703 7.79346C8.89046 6.03364 9.38832 4.23791 10.1707 3.84284C11.0242 3.37595 11.3087 1.58022 10.1707 1.83162Z" fill="#3C3D43"/>
<path d="M17.4609 7.79351C17.4253 7.72168 17.4253 7.68577 17.3898 7.61394C17.212 7.00339 17.0341 6.35692 16.8563 5.78229C16.6785 5.13582 16.4652 4.56119 16.2162 4.16613C16.074 3.95064 15.9317 3.77107 15.7539 3.66332C15.2561 3.376 14.936 2.6218 15.0071 2.11899C15.0427 1.75984 15.2561 1.54435 15.7184 1.6521H15.7539C16.7497 1.9035 17.3186 2.51405 17.6031 3.41192C17.9232 4.48936 17.7809 5.99778 17.4609 7.79351Z" fill="#3C3D43"/>
<path opacity="0.3" d="M16.6785 18.3523C16.7141 19.322 16.5007 20.3635 16.074 21.1896C15.9673 21.3692 15.8606 21.5487 15.7539 21.6924C15.7184 21.6206 15.6472 21.5487 15.6117 21.4769C15.505 21.3692 15.3983 21.2255 15.2916 21.1178C14.5092 20.2917 13.2646 19.322 13.1579 19.2143C14.9716 18.7833 15.7895 17.8495 16.0384 16.1256C16.1095 16.1974 16.1451 16.3052 16.1807 16.377C16.394 16.7362 16.5007 17.1312 16.6074 17.5263C16.643 17.8495 16.6785 18.1009 16.6785 18.3523Z" fill="#010101"/>
<path d="M16.6785 18.496C16.6785 18.7115 16.643 18.927 16.6074 19.1425C16.5718 19.3939 16.5007 19.6094 16.4296 19.8608C16.3229 20.22 16.1807 20.5432 16.0028 20.8305C15.9317 20.9742 15.825 21.1178 15.7539 21.2256L15.7183 21.1896C15.3983 20.7228 14.6159 20.22 14.0114 19.789C13.6558 19.5735 13.3713 19.3939 13.1579 19.2862H13.1223C13.0156 19.2143 12.9445 19.1784 12.9445 19.1784C14.5448 18.7834 15.505 17.7418 15.8962 16.3053C15.9317 16.1257 16.0028 15.9102 16.0384 15.6947C16.3229 16.0898 16.5007 16.5926 16.6074 17.1313C16.643 17.239 16.643 17.3468 16.643 17.4545C16.643 17.4904 16.643 17.5264 16.643 17.5623C16.6785 17.8855 16.7141 18.1728 16.6785 18.496Z" fill="white"/>
<path opacity="0.3" d="M12.6956 19.2503C12.5889 19.3221 11.3442 20.3277 10.5619 21.1537C10.4552 21.2615 10.3485 21.4051 10.2418 21.5129C10.1707 21.5847 10.1351 21.6565 10.0996 21.7284C9.99289 21.5847 9.8862 21.4051 9.77952 21.2256C9.31721 20.3995 9.10384 19.358 9.17497 18.3883C9.17497 18.1728 9.21053 17.9573 9.24609 17.7418C9.24609 17.7059 9.24609 17.6341 9.28165 17.5982C9.35278 17.1672 9.49502 16.7721 9.70839 16.4489C9.74396 16.3412 9.81508 16.2693 9.8862 16.1975C10.064 17.9214 10.8819 18.8193 12.6956 19.2503Z" fill="#010101"/>
<path d="M23.1152 19.1425C22.9018 18.8552 22.6529 18.6038 22.3329 18.4601C22.2617 18.4242 22.1906 18.3883 22.1195 18.3524C22.0839 18.3524 22.0484 18.3165 22.0484 18.3165L20.4836 17.7059L19.7368 17.4186L19.0967 17.2031L17.7809 16.9158L17.7098 16.8799L16.9986 16.7362L16.6785 17.3827L16.643 17.4186L16.5718 17.5982V17.6341L16.4651 17.8855L16.2873 18.3165C16.2873 18.4601 16.2873 18.5679 16.2518 18.7115C16.2518 18.8552 16.2162 18.9988 16.2162 19.1425C16.2162 19.2143 16.1807 19.3221 16.1807 19.3939C16.1807 19.4657 16.1451 19.5735 16.1451 19.6453C16.1451 19.7171 16.1095 19.8249 16.074 19.8967C16.0384 19.9685 16.0384 20.0763 16.0028 20.1481C15.9673 20.3636 15.8962 20.5791 15.825 20.7946C15.7895 20.9023 15.7539 21.046 15.7183 21.1537C15.7183 21.1896 15.6828 21.2255 15.6828 21.2615C15.6472 21.3333 15.6117 21.4051 15.6117 21.5129C15.505 21.872 15.3627 22.2312 15.2205 22.5903C15.1494 22.7699 15.1138 22.9135 15.0427 23.0931C14.6871 23.991 14.3314 24.8529 14.0114 25.5712C13.9758 25.679 13.9047 25.7508 13.8691 25.8585C13.8336 25.9663 13.798 26.0381 13.7269 26.1099C13.4424 26.6487 13.229 27.0796 13.0156 27.367C12.9801 27.4029 12.9801 27.4388 12.9445 27.4388C12.909 27.4029 12.909 27.367 12.8734 27.367C12.6245 26.9719 12.2333 26.2895 11.8065 25.4276C11.2731 24.3142 10.6686 22.9135 10.2063 21.5129C10.1707 21.441 10.1351 21.3333 10.1351 21.2615C10.1351 21.2255 10.0996 21.1896 10.0996 21.1537C10.064 21.0101 10.0284 20.9023 9.99289 20.7946C9.99289 20.7946 9.99289 20.7946 9.99289 20.7587C9.92176 20.5432 9.85064 20.3277 9.81508 20.1481C9.70839 19.789 9.67283 19.4657 9.60171 19.1066C9.56614 18.927 9.56614 18.7474 9.53058 18.5679L9.31721 18.0651L9.17496 17.7059L9.1394 17.5982L8.81934 16.808L8.78378 16.7721L8.07255 16.9158L7.96586 16.9517L6.65007 17.239L6.04552 17.4186L3.76956 18.3165C2.95164 18.6038 2.27596 19.5376 2.27596 20.4354L0.853485 30.707H25L23.5775 20.4354C23.5775 19.9685 23.3997 19.5016 23.1152 19.1425Z" fill="#E1E1E1"/>
<path d="M11.7354 30.7071H12.9445V27.4388L11.7354 26.6128V30.7071Z" fill="#F1F0F0"/>
<path d="M9.81508 15.6588C10.064 17.3827 11.0953 18.7116 12.909 19.1425C12.909 19.1425 10.6686 20.3636 10.064 21.2256C8.9616 19.7531 8.78379 17.1313 9.81508 15.6588Z" fill="white"/>
<path d="M21.4083 26.5409H16.8208V27.8338H21.4083V26.5409Z" fill="white"/>
<path d="M8.99715 26.5409H4.40967V27.8338H8.99715V26.5409Z" fill="white"/>
<path d="M12.34 28.8755C12.091 28.8755 11.9132 29.0551 11.9132 29.3065C11.9132 29.5579 12.091 29.7374 12.34 29.7374C12.5889 29.7374 12.7667 29.522 12.7667 29.3065C12.8023 29.091 12.5889 28.8755 12.34 28.8755ZM12.5178 29.4142C12.4822 29.4142 12.4111 29.3783 12.4111 29.3065C12.4111 29.2705 12.4466 29.1987 12.5178 29.1987C12.5533 29.1987 12.6244 29.2346 12.6244 29.3065C12.6244 29.3783 12.5889 29.4142 12.5178 29.4142ZM12.1621 29.4142C12.1266 29.4142 12.0555 29.3783 12.0555 29.3065C12.0555 29.2705 12.091 29.1987 12.1621 29.1987C12.1977 29.1987 12.2688 29.2346 12.2688 29.3065C12.2688 29.3783 12.2333 29.4142 12.1621 29.4142Z" fill="#805125"/>
<path d="M12.34 28.8036C12.0555 28.8036 11.8421 29.0191 11.8421 29.3064C11.8421 29.5937 12.0555 29.8092 12.34 29.8092C12.6245 29.8092 12.8378 29.5937 12.8378 29.3064C12.8378 29.055 12.6245 28.8036 12.34 28.8036ZM12.34 29.7015C12.1266 29.7015 11.9488 29.5219 11.9488 29.3064C11.9488 29.0909 12.1266 28.9113 12.34 28.9113C12.5533 28.9113 12.7311 29.0909 12.7311 29.3064C12.7311 29.5219 12.5533 29.7015 12.34 29.7015Z" fill="#9D7851"/>
<path d="M12.5178 29.3782H12.1622C12.1266 29.3782 12.1266 29.3423 12.1266 29.3423C12.1266 29.3064 12.1622 29.3064 12.1622 29.3064H12.5178C12.5534 29.3064 12.5534 29.3423 12.5534 29.3423C12.5534 29.3423 12.5534 29.3782 12.5178 29.3782Z" fill="#B2B2B2"/>
<path d="M14.1181 7.68569C13.9047 7.7216 13.1223 8.00892 12.909 8.00892C12.6956 8.00892 11.9132 7.75752 11.6999 7.68569C11.0242 7.50612 9.56616 7.57794 8.96161 7.82935V8.51173C9.10386 8.58356 9.21054 9.62508 9.35279 9.94832C9.42391 10.1638 9.63728 10.4152 9.85066 10.487C10.4552 10.7025 11.1309 10.6307 11.5932 10.523C11.8777 10.4511 12.0555 10.3793 12.2333 10.1279C12.4822 9.76874 12.5889 8.65539 12.9445 8.65539C13.3002 8.65539 13.4068 9.76874 13.6558 10.1279C13.798 10.3434 14.0114 10.4511 14.2959 10.523C14.7582 10.6307 15.4339 10.7025 16.0384 10.487C16.2518 10.4152 16.4652 10.1638 16.5363 9.94832C16.643 9.62508 16.7852 8.58356 16.9275 8.51173V7.82935C16.2518 7.57794 14.7938 7.54203 14.1181 7.68569ZM12.4111 8.87087C12.3755 9.01453 12.3044 9.40959 12.1266 9.84057C11.9488 10.2715 11.6287 10.3434 11.3798 10.4152C11.2376 10.4511 10.4196 10.487 10.1351 10.4152C9.81509 10.3434 9.60172 10.092 9.5306 9.9124C9.45947 9.73283 9.31723 9.15819 9.31723 8.65539C9.31723 8.15258 9.70841 8.04484 10.0285 7.97301C10.1707 7.93709 11.4509 7.90118 12.0199 8.11667C12.4111 8.26032 12.4111 8.6913 12.4111 8.87087ZM16.3229 9.9124C16.2518 10.092 16.0384 10.3434 15.7184 10.4152C15.3983 10.487 14.6159 10.4511 14.4737 10.4152C14.2248 10.3793 13.9403 10.2715 13.7269 9.84057C13.5491 9.40959 13.4424 9.01453 13.4424 8.87087C13.4068 8.72722 13.4068 8.26032 13.8336 8.08075C14.4026 7.86526 15.6828 7.90118 15.825 7.93709C16.1451 8.00892 16.5363 8.15258 16.5363 8.61947C16.5363 9.12228 16.394 9.69691 16.3229 9.9124Z" fill="#2D2E2D"/>
<path opacity="0.15" d="M10.5974 28.5522L9.67284 23.596L9.77952 23.5601L9.38834 21.3693C9.35278 21.1538 9.2461 20.9383 9.13941 20.7228C9.06829 20.6151 8.9616 20.5073 8.89048 20.3996C8.53486 20.0405 8.03699 19.7891 7.53913 19.7891H7.25463L7.21907 19.5376L7.11238 18.8194H6.97014V18.568C6.97014 18.2088 7.04126 17.8497 7.18351 17.5264C7.21907 17.4546 7.25463 17.3828 7.29019 17.3109C7.29019 17.3109 7.29019 17.275 7.32575 17.275C7.36132 17.2032 7.39688 17.1673 7.43244 17.0954L7.468 17.0595C7.43244 16.9877 7.39688 16.9159 7.29019 16.844C7.25463 16.8081 7.21907 16.8081 7.18351 16.8081C7.14795 16.7722 7.07682 16.7722 7.0057 16.7722C6.82789 17.0595 6.68564 17.3469 6.57895 17.6701C6.50783 17.9215 6.47227 18.137 6.43671 18.3884C6.43671 18.4602 6.43671 18.532 6.43671 18.6039V18.6757V18.8553H6.29446V18.8912L6.18777 19.5736L6.15221 19.825H5.86772C4.97867 19.825 4.16075 20.5433 3.98294 21.4052L3.62732 23.3446V23.3805L3.59176 23.596L3.69844 23.6319L2.77383 28.5522C2.73827 28.8036 2.77383 29.055 2.88052 29.2705C3.02277 29.6297 3.30726 29.917 3.62732 30.0607C4.12518 30.2761 4.69418 30.2761 4.90755 30.2761V30.4198H5.26317L5.76103 30.4916C5.86772 30.4916 5.93884 30.4198 5.93884 30.3121V29.917C5.93884 29.8452 5.86772 29.7733 5.79659 29.7374C5.76103 29.7374 5.76103 29.7374 5.72547 29.7374L5.2276 29.8093H4.87198V29.9529C4.83642 29.9529 4.80086 29.9529 4.72974 29.9529C4.4808 29.9529 4.05406 29.917 3.69844 29.7374C3.48507 29.6656 3.34282 29.486 3.20058 29.3064C3.16501 29.2346 3.12945 29.1628 3.09389 29.091C3.02277 28.9114 2.9872 28.7318 3.02277 28.5522L3.94738 23.596L4.05406 23.6319L4.12519 23.165C4.19631 23.0573 4.30299 22.9855 4.37412 22.8777C4.58749 22.6622 4.80086 22.4827 5.04979 22.339C5.5121 22.0158 6.08109 21.8003 6.61452 21.8003C7.18351 21.8003 7.71693 22.0517 8.17924 22.339C8.42817 22.4827 8.64154 22.6622 8.85491 22.8777C8.89048 22.9136 8.9616 22.9855 8.99716 23.0214C9.03272 23.0573 9.06829 23.0932 9.10385 23.165L9.13941 23.3446L9.17497 23.6319H9.21053H9.28166L10.313 28.5882C10.3485 28.7318 10.313 28.9114 10.2774 29.091V29.1269C10.1707 29.4142 9.95733 29.7015 9.67284 29.8093C9.53059 29.8811 9.38834 29.917 9.2461 29.917H9.21053C8.89048 29.9888 8.60598 29.9888 8.4993 29.9888V29.8452H8.14368L8.00143 29.8093L7.64581 29.7374C7.53913 29.7374 7.468 29.8093 7.468 29.917V30.3121C7.468 30.4198 7.53913 30.4916 7.64581 30.4916L8.14368 30.4198H8.4993V30.2761C8.71267 30.2761 9.28166 30.2402 9.77952 30.0607C10.2774 29.8452 10.6686 29.1628 10.5974 28.5522ZM9.03272 22.9495C8.81935 22.6981 8.60598 22.4827 8.32149 22.2672C8.10812 22.1235 7.89474 21.9798 7.64581 21.8721H7.61025C7.32575 21.7284 7.0057 21.6566 6.65008 21.6566C6.04553 21.6566 5.47654 21.9439 5.01423 22.2672C4.69418 22.4827 4.44524 22.77 4.19631 23.0932L4.26743 22.7341V22.6622V22.5545L4.44524 21.477C4.55193 20.8306 5.15648 20.3278 5.79659 20.3278H7.43244C7.89474 20.3278 8.32149 20.5792 8.57042 20.9742C8.67711 21.1179 8.74823 21.2975 8.78379 21.477L9.06829 23.0214V23.0573V23.1291C9.03272 23.0932 9.03272 23.0573 8.99716 23.0573C9.06829 22.9855 9.06829 22.9495 9.03272 22.9495Z" fill="#010101"/>
<path d="M9.31718 23.3806C9.17494 23.1292 8.99713 22.9137 8.78376 22.6982C8.57038 22.4827 8.35701 22.3031 8.10808 22.1595C7.64578 21.8362 7.07679 21.6207 6.54336 21.6207C5.97437 21.6207 5.44094 21.8721 4.97863 22.1595C4.7297 22.3031 4.51633 22.4827 4.30296 22.6982C4.08959 22.9137 3.91178 23.1292 3.76953 23.3806C3.9829 22.8418 4.40964 22.3749 4.87195 22.0517C5.33425 21.6926 5.90324 21.4412 6.5078 21.4412C7.11235 21.4412 7.68134 21.7285 8.1792 22.0517C8.67707 22.3749 9.10381 22.8059 9.31718 23.3806Z" fill="#A7A6A6"/>
<path opacity="0.2" d="M8.78376 22.6263C8.57038 22.4108 8.35701 22.2312 8.10808 22.0875C7.64578 21.7643 7.11235 21.5488 6.54336 21.5488C5.97437 21.5488 5.44094 21.8002 4.97863 22.0875C4.7297 22.2312 4.51633 22.4108 4.30296 22.6263C4.16071 22.7699 4.01846 22.9136 3.91178 23.0932C3.87622 23.2009 3.80509 23.2727 3.76953 23.3805C3.91178 23.1291 4.08959 22.9136 4.30296 22.6981C4.51633 22.4826 4.7297 22.303 4.97863 22.1594C5.44094 21.8361 6.00993 21.6207 6.54336 21.6207C7.11235 21.6207 7.64578 21.8721 8.10808 22.1594C8.35701 22.303 8.57038 22.4826 8.78376 22.6981C8.99713 22.9136 9.17494 23.1291 9.31718 23.3805C9.28162 23.2727 9.24606 23.2009 9.17494 23.0932C9.06825 22.9136 8.926 22.7699 8.78376 22.6263Z" fill="#010101"/>
<path d="M5.61878 29.522C5.72546 29.522 5.79659 29.5938 5.79659 29.7015V30.0966C5.79659 30.2044 5.72546 30.2762 5.61878 30.2762L5.12091 30.1684V29.5938L5.61878 29.522Z" fill="#484848"/>
<path d="M5.15646 29.6296H4.80084V30.2043H5.15646V29.6296Z" fill="#5E5F5F"/>
<path d="M3.59174 23.3087L3.87623 23.3446L2.95162 28.3368C2.8805 28.8037 3.20056 29.3783 3.6273 29.522C4.0896 29.7015 4.58747 29.7374 4.80084 29.7374V30.0248C4.58747 30.0248 4.01848 29.9889 3.52061 29.8093C2.95162 29.5938 2.56044 28.9114 2.66713 28.3009L3.59174 23.3087Z" fill="#A7A6A6"/>
<path d="M7.46797 29.522C7.36129 29.522 7.29016 29.5938 7.29016 29.7015V30.0966C7.29016 30.2044 7.36129 30.2762 7.46797 30.2762L7.96584 30.2044V29.6297L7.46797 29.522Z" fill="#484848"/>
<path d="M8.32147 29.6296H7.96585V30.2043H8.32147V29.6296Z" fill="#5E5F5F"/>
<path d="M9.53058 23.3087L10.4552 28.3009C10.5263 28.9114 10.1707 29.5938 9.6017 29.8093C9.10383 30.0248 8.53484 30.0248 8.32147 30.0248V29.7374C8.53484 29.7374 9.03271 29.7015 9.49501 29.522C9.92176 29.3424 10.2418 28.8037 10.1707 28.3368L9.24608 23.3446L9.53058 23.3087Z" fill="#A7A6A6"/>
<path d="M7.29017 16.844C7.2546 16.844 7.2546 16.844 7.29017 16.844C7.21904 16.9518 7.18348 17.0236 7.14792 17.0954C7.11236 17.1673 7.07679 17.2391 7.04123 17.3109C7.00567 17.4187 6.97011 17.5264 6.93455 17.6342C6.89899 17.706 6.89899 17.7419 6.89899 17.8137C6.86342 17.9933 6.82786 18.1729 6.82786 18.3525V19.6454H6.29443V18.3525C6.29443 18.1011 6.33 17.8497 6.40112 17.5983C6.47224 17.3109 6.57893 17.0595 6.72118 16.8081H6.75674C6.86342 16.7722 6.93455 16.7722 7.04123 16.7722C7.11236 16.7722 7.14792 16.7722 7.21904 16.8081C7.21904 16.8081 7.2546 16.8081 7.29017 16.844Z" fill="#65B6E5"/>
<path opacity="0.3" d="M7.18347 16.7722C7.21904 16.7722 7.2546 16.8081 7.29016 16.8081C7.29016 16.8081 7.29016 16.8081 7.29016 16.844C7.2546 16.9159 7.18347 16.9877 7.14791 17.0595C7.11235 17.1314 7.07679 17.2032 7.04123 17.275C7.00566 17.3828 6.9701 17.4905 6.93454 17.5983C6.89898 17.6701 6.89898 17.706 6.89898 17.7778C6.86342 17.9574 6.82786 18.137 6.82786 18.3165V19.6095H6.68561V18.3165C6.68561 18.0651 6.72117 17.8497 6.79229 17.6342C6.86342 17.3469 7.00567 17.0236 7.18347 16.7722Z" fill="white"/>
<path opacity="0.2" d="M6.82786 18.3884H6.29443V19.6454H6.82786V18.3884Z" fill="#010101"/>
<path d="M6.15217 18.568H6.93454L7.14791 19.825H5.97437L6.15217 18.568Z" fill="#65B6E5"/>
<path opacity="0.3" d="M7.04125 19.825L6.86344 18.568H6.57895L6.79232 19.825H7.04125Z" fill="white"/>
<path opacity="0.3" d="M3.80511 23.3446L2.8805 28.3367C2.80937 28.8036 3.12943 29.3783 3.55617 29.5219C4.01848 29.7015 4.51635 29.7374 4.72972 29.7374H4.80084C4.58747 29.7374 4.0896 29.7015 3.6273 29.5219C3.20056 29.3424 2.8805 28.8036 2.95162 28.3367L3.87623 23.3446H3.80511Z" fill="white"/>
<path opacity="0.3" d="M10.3841 28.3009C10.4552 28.9114 10.0996 29.5938 9.53058 29.8093C9.06827 29.9889 8.57041 30.0248 8.32147 30.0248C8.53484 30.0248 9.10383 29.9889 9.6017 29.8093C10.1707 29.5938 10.5619 28.9114 10.4552 28.3009L9.53058 23.3087H9.45945L10.3841 28.3009Z" fill="white"/>
<path d="M5.72545 19.5377H7.3613C8.25035 19.5377 9.06827 20.256 9.24608 21.118L9.63726 23.3088L9.10383 23.4165L8.71265 21.2257C8.60597 20.5792 8.00141 20.0764 7.3613 20.0764H5.72545C5.08534 20.0764 4.48079 20.5792 4.3741 21.2257L3.98292 23.4165L3.44949 23.3088L3.84067 21.118C4.01848 20.256 4.87197 19.5377 5.72545 19.5377Z" fill="#65B6E5"/>
<path opacity="0.3" d="M4.30299 21.2257L3.9118 23.4165H3.98293L4.37411 21.2257C4.48079 20.5792 5.08535 20.0764 5.72546 20.0764H5.65434C5.01422 20.0764 4.40967 20.5792 4.30299 21.2257Z" fill="white"/>
<path opacity="0.3" d="M9.17494 21.118L9.56612 23.3088L9.13938 23.3806L9.67281 23.2728L9.24606 21.118C9.10382 20.256 8.25033 19.5377 7.36129 19.5377H7.29016C8.17921 19.5377 9.03269 20.256 9.17494 21.118Z" fill="white"/>
<path opacity="0.15" d="M20.3414 24.6734C20.3414 24.7811 20.3414 24.8529 20.3058 24.9248C20.3058 24.9607 20.3058 24.9607 20.2703 24.9966C20.2703 25.0684 20.2347 25.1043 20.1991 25.1762C20.1991 25.2121 20.1636 25.2121 20.1636 25.2121C20.128 25.2839 20.0925 25.3198 20.0569 25.3916L20.0213 25.4276C19.9858 25.4994 19.9502 25.5353 19.8791 25.5712C19.7013 25.7508 19.4168 25.8945 19.1323 25.9304C19.0967 25.9304 19.0256 25.9304 18.99 25.9304C18.2788 25.9304 17.7098 25.3557 17.7098 24.6374C17.7098 24.3142 17.8521 24.0269 18.0299 23.7755C18.0299 23.7755 18.0299 23.7755 18.0654 23.7396C18.101 23.7037 18.1366 23.6677 18.2077 23.6318C18.2432 23.5959 18.2432 23.5959 18.2788 23.5959C18.3144 23.56 18.3855 23.5241 18.421 23.4882C18.4566 23.4882 18.4566 23.4523 18.4922 23.4523C18.5633 23.4163 18.5989 23.4163 18.67 23.3804C18.7055 23.3804 18.7055 23.3445 18.7411 23.3445V18.9988C18.7411 18.496 18.6344 17.9932 18.4566 17.5982C18.3499 17.3468 18.2077 17.1313 18.0654 16.9517C18.101 16.8799 18.1721 16.844 18.2432 16.808C18.3499 16.7721 18.4566 16.7362 18.5989 16.7362C18.67 16.844 18.7411 16.9158 18.7767 17.0235C18.8833 17.2031 18.9545 17.3827 19.0256 17.5622C19.1678 17.9932 19.2745 18.4601 19.2745 18.9629V23.3804C19.3457 23.3804 19.3812 23.4163 19.4168 23.4163C19.4523 23.4163 19.5235 23.4523 19.559 23.4523C19.559 23.4523 19.559 23.4523 19.5946 23.4523C20.0569 23.7396 20.3414 24.1705 20.3414 24.6734Z" fill="#010101"/>
<path d="M19.6302 18.9988V23.9191H19.0967V18.9988C19.0967 18.496 18.99 18.0291 18.8478 17.6341C18.7055 17.3108 18.5277 17.0235 18.3144 16.808C18.421 16.7721 18.5277 16.7362 18.67 16.7362C18.7411 16.7362 18.7767 16.7362 18.8478 16.7721C18.9189 16.7721 18.9545 16.808 19.0256 16.844C19.0967 16.9517 19.1678 17.0594 19.239 17.2031C19.239 17.239 19.2745 17.2749 19.3101 17.3108C19.3457 17.3468 19.3457 17.3827 19.3812 17.4186C19.4168 17.4904 19.4168 17.5263 19.4523 17.5622C19.4879 17.6341 19.4879 17.67 19.5235 17.7418C19.5946 17.9214 19.6302 18.1369 19.6657 18.3524C19.5946 18.5679 19.6302 18.7833 19.6302 18.9988Z" fill="#65B6E5"/>
<path d="M19.3457 25.9662C20.0527 25.9662 20.6259 25.3874 20.6259 24.6733C20.6259 23.9592 20.0527 23.3804 19.3457 23.3804C18.6386 23.3804 18.0654 23.9592 18.0654 24.6733C18.0654 25.3874 18.6386 25.9662 19.3457 25.9662Z" fill="#484848"/>
<path opacity="0.2" d="M20.5548 24.7811C20.5548 24.0628 19.9858 23.4882 19.2745 23.4882C18.9189 23.4882 18.6344 23.6319 18.3855 23.8474C18.6344 23.596 18.9545 23.4164 19.3457 23.4164C20.0569 23.4164 20.6259 23.991 20.6259 24.7093C20.6259 25.0685 20.4836 25.3917 20.2347 25.6431C20.4125 25.3917 20.5548 25.1044 20.5548 24.7811Z" fill="white"/>
<path d="M19.6301 22.5184H19.0967V24.1346H19.6301V22.5184Z" fill="#B2B2B2"/>
<path opacity="0.3" d="M19.6301 18.9988V23.9191H19.4879V18.9988C19.4879 18.4601 19.3812 17.9573 19.2034 17.5263C19.0967 17.239 18.9545 16.9876 18.8122 16.7721C18.8833 16.7721 18.9189 16.808 18.99 16.8439C19.0612 16.9517 19.1323 17.0953 19.2034 17.2031C19.239 17.2749 19.2745 17.3467 19.3101 17.4186C19.3457 17.5263 19.3812 17.634 19.4168 17.7418C19.4879 17.9214 19.5235 18.1369 19.559 18.3523C19.5946 18.5678 19.6301 18.7833 19.6301 18.9988Z" fill="white"/>
<path opacity="0.2" d="M19.0967 23.8114V24.1347H19.6301V23.8114C19.559 23.7755 19.4523 23.7755 19.3812 23.7755C19.2745 23.7755 19.1678 23.8114 19.0967 23.8114Z" fill="#010101"/>
<path d="M19.3457 25.4634C19.7777 25.4634 20.128 25.1097 20.128 24.6733C20.128 24.2369 19.7777 23.8832 19.3457 23.8832C18.9136 23.8832 18.5633 24.2369 18.5633 24.6733C18.5633 25.1097 18.9136 25.4634 19.3457 25.4634Z" fill="#B2B2B2"/>
<path opacity="0.3" d="M19.9147 24.9966C19.9147 24.5656 19.559 24.2065 19.1323 24.2065C19.0612 24.2065 18.9545 24.2065 18.8834 24.2424C18.99 24.0987 19.2034 23.991 19.4168 23.991C19.7724 23.991 20.0925 24.2783 20.0925 24.6733C20.0925 24.8529 20.0213 24.9966 19.9502 25.1043C19.8791 25.0325 19.9147 25.0325 19.9147 24.9966Z" fill="white"/>
<path opacity="0.3" d="M12.9445 27.4388C9.38835 25.9663 7.04127 23.2727 6.15222 21.7642C6.68565 21.441 7.78807 20.9023 7.78807 20.9023C7.78807 20.9023 6.72121 20.4713 6.15222 20.3636C6.22335 19.5734 6.93458 18.065 7.96588 16.9517L8.07256 16.9158L8.7838 16.7721L8.81936 16.808L9.13942 17.4545L9.2461 17.5981L9.38835 17.8495C9.38835 17.9214 9.38835 17.9932 9.35279 18.065C9.28167 18.6037 9.28167 19.1784 9.38835 19.8248C9.42391 20.1481 9.49504 20.4713 9.60172 20.7945C9.63729 20.9382 9.70841 21.0819 9.74397 21.2255C10.633 23.8114 12.2333 26.4691 12.8734 27.3669C12.909 27.4028 12.9445 27.4388 12.9445 27.4388Z" fill="#010101"/>
<path d="M12.9445 27.4388C9.38835 25.8226 7.39688 23.2727 6.5434 21.7643C7.07682 21.4411 8.17924 20.9023 8.17924 20.9023C8.17924 20.9023 7.11239 20.4714 6.5434 20.3636C6.61452 19.5735 7.18351 18.0292 8.10812 16.9158C8.57042 16.3412 9.13941 15.9102 9.77953 15.6947C9.77953 15.6947 9.77953 15.6947 9.77953 15.7306C9.7084 15.982 9.67284 16.2334 9.63728 16.4848C9.53059 17.2031 9.45947 17.9214 9.53059 18.6756C9.60172 19.358 9.74397 20.0763 9.95734 20.8664C9.9929 21.0101 10.0285 21.1178 10.064 21.2256C10.0996 21.3333 10.1351 21.477 10.1707 21.5847C11.0242 24.0628 12.2333 26.5409 12.8378 27.4388C12.909 27.4029 12.9445 27.4388 12.9445 27.4388Z" fill="#D0D1D1"/>
<path opacity="0.3" d="M18.101 20.9382C18.3855 21.0819 19.1678 21.4769 19.6302 21.7643C19.3101 22.3389 18.8122 23.0572 18.101 23.8114C17.8876 24.0269 17.6742 24.2783 17.4253 24.4938C16.5363 25.3557 15.4339 26.2177 14.1181 26.9001C13.7269 27.1156 13.3357 27.2951 12.9445 27.4388C12.9801 27.4029 12.9801 27.367 13.0156 27.367C13.2646 27.0437 13.6202 26.4691 14.0114 25.7508C14.6871 24.5297 15.505 22.8417 16.074 21.2255C16.1095 21.0819 16.1806 20.9382 16.2162 20.7946C16.3229 20.4713 16.394 20.1481 16.4296 19.8249C16.4651 19.5735 16.5007 19.358 16.5007 19.1066C16.5363 18.6756 16.5007 18.2446 16.4296 17.8496L16.5363 17.5982V17.5622L16.6074 17.4186L16.643 17.3827L16.963 16.7362L17.6742 16.8799L17.7809 16.9158C18.1721 17.3468 18.5633 17.8496 18.8478 18.3524C19.3101 19.1066 19.5946 19.8608 19.6302 20.3277C19.1678 20.3995 18.3855 20.7227 18.101 20.8305C18.0299 20.8664 17.9943 20.8664 17.9943 20.8664C17.9943 20.8664 18.0654 20.9382 18.101 20.9382Z" fill="#010101"/>
<path d="M18.101 21.1537C18.4566 21.3333 18.9545 21.5847 19.239 21.7643C18.9545 22.2671 18.5989 22.8417 18.101 23.4523C17.8876 23.7037 17.6742 23.9551 17.4253 24.2424C16.6074 25.1402 15.505 26.074 14.1181 26.8641C13.7624 27.0796 13.3713 27.2592 12.9445 27.4747C12.9801 27.4388 12.9801 27.4029 13.0156 27.4029C13.1935 27.1155 13.4424 26.6846 13.7269 26.1459C13.7624 26.074 13.798 25.9663 13.8691 25.8944C13.9047 25.7867 13.9758 25.7149 14.0114 25.6071C14.3314 24.8888 14.7226 24.0269 15.0427 23.129C15.1138 22.9494 15.1494 22.8058 15.2205 22.6262C15.3627 22.2671 15.4694 21.9079 15.6117 21.5488C15.6472 21.4769 15.6828 21.3692 15.6828 21.2974C15.6828 21.2615 15.7183 21.2255 15.7183 21.1896C15.7539 21.046 15.7895 20.9382 15.825 20.8305C15.8962 20.615 15.9673 20.3995 16.0028 20.184C16.0384 20.1122 16.0384 20.0044 16.074 19.9326C16.1095 19.8608 16.1095 19.753 16.1451 19.6812C16.1451 19.6094 16.1806 19.5016 16.1806 19.4298C16.1806 19.358 16.2162 19.2502 16.2162 19.1784C16.2518 19.0347 16.2518 18.8911 16.2518 18.7474C16.2518 18.6038 16.2873 18.496 16.2873 18.3524C16.2873 18.1728 16.2873 17.9932 16.2873 17.8496C16.2873 17.4904 16.2518 17.1313 16.2162 16.808C16.2162 16.7003 16.1806 16.5925 16.1806 16.4848C16.1451 16.2334 16.1095 15.982 16.0384 15.7306C16.6785 15.9461 17.2475 16.413 17.7098 16.9517C18.101 17.4186 18.421 17.9932 18.7055 18.496C19.0612 19.2143 19.239 19.9326 19.3101 20.3995C18.99 20.4713 18.5277 20.615 18.1721 20.7586C17.8876 20.8664 17.7098 20.9382 17.7098 20.9382C17.7098 20.9382 17.8521 21.0101 18.101 21.1537Z" fill="#D0D1D1"/>
<path d="M19.8791 27.1156H15.505C15.3983 27.1156 15.2916 27.2233 15.2916 27.3311V29.9529C15.2916 30.0606 15.3983 30.1684 15.505 30.1684H19.8791C19.9858 30.1684 20.0924 30.0606 20.0924 29.9529V27.3311C20.0569 27.1874 19.9858 27.1156 19.8791 27.1156ZM18.1365 27.6184H17.2119V27.3311H18.1365V27.6184Z" fill="#DBF0F5"/>
<path d="M19.8791 30.2401H15.505C15.3627 30.2401 15.2205 30.0965 15.2205 29.9528V27.331C15.2205 27.1874 15.3627 27.0437 15.505 27.0437H19.8791C20.0213 27.0437 20.1636 27.1874 20.1636 27.331V29.9528C20.128 30.0965 20.0213 30.2401 19.8791 30.2401ZM15.505 27.1874C15.4339 27.1874 15.3627 27.2592 15.3627 27.331V29.9528C15.3627 30.0246 15.4339 30.0965 15.505 30.0965H19.8791C19.9502 30.0965 20.0213 30.0246 20.0213 29.9528V27.331C20.0213 27.2592 19.9502 27.1874 19.8791 27.1874H15.505Z" fill="#797980"/>
<path d="M19.6302 27.9417H18.1366V28.229H19.6302V27.9417Z" fill="#F04D23"/>
<path d="M19.6302 28.5522H17.6743V28.7677H19.6302V28.5522Z" fill="#A1A0A8"/>
<path d="M19.6302 29.0909H17.6743V29.3064H19.6302V29.0909Z" fill="#A1A0A8"/>
<path d="M19.6302 29.6296H17.6743V29.8451H19.6302V29.6296Z" fill="#A1A0A8"/>
<path d="M17.3186 27.9417H15.7539V29.917H17.3186V27.9417Z" fill="#75B9D5"/>
<path opacity="0.3" d="M17.9943 27.4747L18.1721 27.0437H17.9943V27.4747Z" fill="#010101"/>
<path d="M17.9943 27.4747H17.3898L17.1764 25.9663H18.1721L17.9943 27.4747Z" fill="#509EC9"/>
<path d="M18.1366 27.9417H17.6743V28.4085H18.1366V27.9417Z" fill="#F04D23"/>
<path d="M17.9587 28.0135H17.8521V28.3368H17.9587V28.0135Z" fill="white"/>
<path d="M18.0654 28.1212H17.7454V28.229H18.0654V28.1212Z" fill="white"/>
</g>
<defs>
<clipPath id="clip0">
<rect width="25" height="32" fill="white"/>
</clipPath>
</defs>
</svg>
