<svg width="25" height="25" viewBox="0 0 25 25" fill="none" xmlns="http://www.w3.org/2000/svg">
<path d="M6.27505 4.29798C6.17498 4.3078 6.09873 4.39199 6.09881 4.49253C6.09881 6.6898 5.17552 8.11588 4.23188 9.43935C3.28824 10.7628 2.30837 11.9882 2.34473 13.7182V24.4133C2.34453 24.4676 2.34473 24.6094 2.34473 24.6094C2.34473 24.6094 2.48658 24.6096 2.54081 24.6094H15.8195C15.928 24.6098 16.016 24.5218 16.0156 24.4133V13.7182C16.0519 11.9882 15.0721 10.7628 14.1284 9.43935C13.1848 8.11588 12.2611 6.6898 12.2611 4.49253C12.2607 4.38467 12.1729 4.29757 12.065 4.29798H6.29488C6.28828 4.29764 6.28165 4.29764 6.27505 4.29798V4.29798Z" fill="white"/>
<path d="M11.9147 10.1565V13.4767H12.696V24.6094H15.8195C15.928 24.6098 16.016 24.5217 16.0156 24.4133V13.7182C16.0471 12.2176 12.5007 9.7666 12.5007 9.7666L11.9147 10.1565Z" fill="black" fill-opacity="0.5"/>
<path d="M13.2819 12.8907V13.0868V24.6093H21.875V12.8907H13.2819Z" fill="white"/>
<path d="M17.5785 16.4071V16.6017V21.093H21.875V16.4071H17.5785Z" fill="black" fill-opacity="0.5"/>
<path d="M13.2819 12.8907V13.0868V13.8673H21.875V12.8907H13.2819Z" fill="black" fill-opacity="0.5"/>
<path d="M12.5007 9.7666V9.96115V13.2814H22.6563V9.7666H12.5007Z" fill="white"/>
<path d="M6.27504 4.29798C6.22675 4.30272 6.18195 4.32528 6.14937 4.36124C6.11679 4.3972 6.09876 4.44401 6.0988 4.49253C6.0988 4.76407 6.08448 5.02376 6.05798 5.273H12.3019C12.2754 5.02376 12.2611 4.76407 12.2611 4.49253C12.2609 4.44073 12.2401 4.39112 12.2034 4.35464C12.1666 4.31815 12.1168 4.29778 12.065 4.29798H6.29488C6.28827 4.29765 6.28165 4.29765 6.27504 4.29798V4.29798Z" fill="black" fill-opacity="0.5"/>
<path d="M5.46899 0.390625V0.586706V4.68707H12.8913V0.390625H5.46899Z" fill="white"/>
<path d="M6.83581 12.1093V12.3053V15.0389H3.9061V17.774H6.83581V20.7036H9.57097V17.774H12.5007V15.0389H9.57097V12.1093H6.83581Z" fill="black" fill-opacity="0.5"/>
</svg>
