<svg width="25" height="25" viewBox="0 0 25 25" fill="none" xmlns="http://www.w3.org/2000/svg">
<path d="M17.4219 17.1094C17.5203 17.0359 17.5781 16.9199 17.5781 16.7969V16.7199C18.2418 16.0945 18.7762 15.3605 19.1672 14.5566C19.4152 16.9098 21.4105 18.75 23.8281 18.75C24.0437 18.75 24.2188 18.575 24.2188 18.3594V8.98438C24.2188 6.39961 22.116 4.29688 19.5312 4.29688H18.7988C17.4879 2.19062 15.1582 0.78125 12.5 0.78125C8.53945 0.78125 5.30312 3.90195 5.09805 7.8125H4.6875C3.61055 7.8125 2.73438 8.68867 2.73438 9.76562C2.73438 10.8426 3.61055 11.7188 4.6875 11.7188H5.09883C5.20039 13.6137 6.0293 15.4074 7.42188 16.7199V16.7969C7.42188 16.9199 7.47969 17.0355 7.57812 17.1094C8.02187 17.4422 8.49492 17.718 8.98438 17.9488V18.6543C8.98438 19.2051 8.59336 19.6875 8.05391 19.8012L4.29023 20.5938C2.66367 20.9359 1.32695 22.1281 0.801172 23.7051C0.787891 23.7445 0.78125 23.7863 0.78125 23.8281V24.2188H1.5625V23.8934C2.01406 22.6074 3.11563 21.6391 4.45117 21.3578L5.10547 21.2199C6.7832 22.8555 9.52461 23.8281 12.5 23.8281C15.4754 23.8281 18.2168 22.8555 19.8945 21.2199L20.5488 21.3578C21.8844 21.6391 22.9859 22.6074 23.4375 23.8934V24.2188H24.2188V23.8281C24.2188 23.7863 24.2121 23.7445 24.1988 23.7047C23.673 22.1277 22.3363 20.9355 20.7098 20.5934L16.9461 19.8008C16.4066 19.6871 16.0156 19.2051 16.0156 18.6539V17.9484C16.5051 17.7176 16.9781 17.4422 17.4219 17.1094ZM7.96563 11.6879L5.85938 9.23047V8.96758C8.08555 8.83164 9.94414 7.55195 10.6398 5.80937C11.8238 7.60156 15.0727 8.88203 19.0473 8.97852L17.0172 11.6852L12.5641 10.943C12.5215 10.9355 12.4781 10.9355 12.4355 10.943L7.96563 11.6879ZM20.3125 8.59375C20.9586 8.59375 21.4844 9.11953 21.4844 9.76562C21.4844 10.4117 20.9586 10.9375 20.3125 10.9375H19.9219V8.59375H20.3125ZM17.5781 15.5824V12.2395L19.1406 10.1562V11.3281C19.1406 12.8895 18.5754 14.393 17.5781 15.5824ZM19.5312 5.07812C21.6852 5.07812 23.4375 6.83047 23.4375 8.98438V17.9492C21.4664 17.7527 19.9219 16.0844 19.9219 14.0625V11.7188H20.3125C21.3895 11.7188 22.2656 10.8426 22.2656 9.76562C22.2656 8.68867 21.3895 7.8125 20.3125 7.8125H19.902C19.8508 6.83945 19.6141 5.91719 19.2223 5.07812H19.5312ZM12.5 1.5625C16.1602 1.5625 19.1379 4.53906 19.1402 8.19844C14.6551 8.10195 10.9375 6.35469 10.9375 4.29688H10.1562C10.1562 6.34062 8.26211 8.01992 5.86016 8.18672C5.86914 4.53242 8.84375 1.5625 12.5 1.5625ZM3.51562 9.76562C3.51562 9.11953 4.04141 8.59375 4.6875 8.59375H5.07812V10.9375H4.6875C4.04141 10.9375 3.51562 10.4117 3.51562 9.76562ZM5.85938 11.3281V10.4309L7.42188 12.2539V15.5824C6.42461 14.393 5.85938 12.8895 5.85938 11.3281ZM8.20312 15.7109L9.68906 16.0082L9.84258 15.2422L8.20312 14.9141V13.9922L9.84219 13.6645L9.68867 12.8984L8.20312 13.1953V12.4402L12.5 11.7242L16.7969 12.4402V13.1953L15.3109 12.898L15.1574 13.6641L16.7969 13.9922V14.9145L15.1578 15.2422L15.3113 16.0082L16.7969 15.7109V16.5984C14.2395 18.4133 10.7605 18.4133 8.20312 16.5984V15.7109ZM16.7852 20.5652L18.9484 21.0207C17.3934 22.2984 15.0457 23.0469 12.5 23.0469C9.9543 23.0469 7.60664 22.2984 6.05156 21.0207L8.21484 20.5652C9.11328 20.3762 9.76562 19.5723 9.76562 18.6539V18.2703C10.6484 18.5797 11.5734 18.7395 12.5 18.7395C13.4266 18.7395 14.3516 18.5797 15.2344 18.2703V18.6539C15.2344 19.5723 15.8863 20.3762 16.7852 20.5652Z" fill="white"/>
<path d="M9.76562 10.9375C10.1971 10.9375 10.5469 10.5877 10.5469 10.1562C10.5469 9.72478 10.1971 9.375 9.76562 9.375C9.33415 9.375 8.98438 9.72478 8.98438 10.1562C8.98438 10.5877 9.33415 10.9375 9.76562 10.9375Z" fill="white"/>
<path d="M15.2344 10.9375C15.6658 10.9375 16.0156 10.5877 16.0156 10.1562C16.0156 9.72478 15.6658 9.375 15.2344 9.375C14.8029 9.375 14.4531 9.72478 14.4531 10.1562C14.4531 10.5877 14.8029 10.9375 15.2344 10.9375Z" fill="white"/>
</svg>
